<?xml version="1.0" standalone="no"?>
<!DOCTYPE svg PUBLIC "-//W3C//DTD SVG 20010904//EN"
 "http://www.w3.org/TR/2001/REC-SVG-20010904/DTD/svg10.dtd">
<svg version="1.0" xmlns="http://www.w3.org/2000/svg"
 width="100%"  viewBox="0 0 1440.000000 156.000000"
 preserveAspectRatio="xMidYMid meet">
<g transform="translate(0.000000,156.000000) scale(0.100000,-0.100000)"
fill="#03062f" stroke="none">
<path d="M0 1511 c0 -56 -2 -55 125 -66 67 -6 318 -32 910 -95 154 -16 411
-43 570 -60 160 -17 416 -44 570 -60 154 -16 408 -43 565 -59 441 -46 849 -89
1150 -121 151 -16 408 -43 570 -60 659 -69 878 -92 1150 -120 157 -17 412 -44
568 -60 155 -17 409 -43 565 -60 155 -16 410 -43 567 -59 633 -67 878 -93
1145 -121 269 -28 505 -53 1145 -120 162 -17 423 -44 580 -61 157 -16 413 -43
570 -60 157 -16 412 -43 568 -59 155 -17 410 -43 567 -60 157 -16 413 -43 570
-60 157 -16 413 -44 570 -61 157 -17 291 -29 299 -26 7 3 161 103 342 222 181
119 402 265 492 323 90 59 181 119 203 135 l39 27 0 395 0 395 -7200 0 -7200
0 0 -49z"/>
</g>
</svg>
